<?xml version="1.0" encoding="utf-8"?>
<!-- Generator: Adobe Illustrator 21.1.0, SVG Export Plug-In . SVG Version: 6.00 Build 0)  -->
<svg version="1.1" id="_x31_" xmlns="http://www.w3.org/2000/svg" xmlns:xlink="http://www.w3.org/1999/xlink" x="0px" y="0px"
     viewBox="0 0 24 24" style="enable-background:new 0 0 24 24;" xml:space="preserve">
<style type="text/css">
    .st0{fill:#FFFFFF;}
</style>
<polygon id="_x32_" class="st0" points="13,4 2,4 2,6 6,9 6,17 9,15 9,9 13,6 "/>
<path id="_x31__1_" class="st0" d="M20.8,16.3l-1.1-0.8c0-0.2,0-0.3,0-0.5c0-0.2,0-0.3,0-0.5l1.1-0.8c0.1-0.1,0.1-0.2,0.1-0.3
    l-1-1.7c-0.1-0.1-0.2-0.1-0.3-0.1L18.2,12c-0.3-0.2-0.5-0.4-0.9-0.5l-0.2-1.3c0-0.1-0.1-0.2-0.2-0.2h-2c-0.1,0-0.2,0.1-0.3,0.2
    l-0.2,1.3c-0.3,0.1-0.6,0.3-0.9,0.5l-1.3-0.5c-0.1,0-0.2,0-0.3,0.1l-1,1.7c-0.1,0.1,0,0.2,0.1,0.3l1.1,0.8c0,0.2,0,0.3,0,0.5
    c0,0.2,0,0.3,0,0.5l-1.1,0.8c-0.1,0.1-0.1,0.2-0.1,0.3l1,1.7c0.1,0.1,0.2,0.1,0.3,0.1l1.3-0.5c0.3,0.2,0.5,0.4,0.9,0.5l0.2,1.3
    c0,0.1,0.1,0.2,0.3,0.2h2c0.1,0,0.2-0.1,0.2-0.2l0.2-1.3c0.3-0.1,0.6-0.3,0.9-0.5l1.3,0.5c0.1,0,0.3,0,0.3-0.1l1-1.7
    C20.9,16.5,20.9,16.4,20.8,16.3z M16,17c-1.1,0-2-0.9-2-2c0-1.1,0.9-2,2-2s2,0.9,2,2C18,16.1,17.1,17,16,17z"/>
</svg>