<?xml version="1.0" encoding="utf-8"?>
<!-- Generator: Adobe Illustrator 21.1.0, SVG Export Plug-In . SVG Version: 6.00 Build 0)  -->
<svg version="1.1" id="_x31_" xmlns="http://www.w3.org/2000/svg" xmlns:xlink="http://www.w3.org/1999/xlink" x="0px" y="0px"
     viewBox="0 0 24 24" style="enable-background:new 0 0 24 24;" xml:space="preserve">
<style type="text/css">
    .st0{fill-rule:evenodd;clip-rule:evenodd;fill:#FFFFFF;}
</style>
<path id="_x32_" class="st0" d="M19,21H5c-1.1,0-2-0.9-2-2V7c0-1.1,0.9-2,2-2h1V3h2v2h8V3h2v2h1c1.1,0,2,0.9,2,2v12
    C21,20.1,20.1,21,19,21z M19,9H5v10h14V9z M9,13H7v-2h2V13z M9,17H7v-2h2V17z M13,13h-2v-2h2V13z M13,17h-2v-2h2V17z M17,13h-2v-2h2
    V13z M17,17h-2v-2h2V17z"/>
</svg>