<?xml version="1.0" encoding="utf-8"?>
<!-- Generator: Adobe Illustrator 21.1.0, SVG Export Plug-In . SVG Version: 6.00 Build 0)  -->
<svg version="1.1" id="_x31_" xmlns="http://www.w3.org/2000/svg" xmlns:xlink="http://www.w3.org/1999/xlink" x="0px" y="0px"
     viewBox="0 0 24 24" style="enable-background:new 0 0 24 24;" xml:space="preserve">
<style type="text/css">
    .st0{fill:#FFFFFF;}
</style>
<path id="_x32_" class="st0" d="M16.2,14.7h-0.8l-0.3-0.3c1-1.1,1.5-2.6,1.5-4.1c0-3.5-2.8-6.3-6.3-6.3C6.8,4,4,6.8,4,10.3
    c0,3.5,2.8,6.3,6.3,6.3c1.6,0,3-0.6,4.1-1.5l0.3,0.3v0.8l3.9,3.9l1.5-1.5L16.2,14.7z M10.3,14.7c-2.4,0-4.4-2-4.4-4.4s2-4.4,4.4-4.4
    s4.4,2,4.4,4.4S12.8,14.7,10.3,14.7z"/>
</svg>