<?xml version="1.0" encoding="utf-8"?>
<!-- Generator: Adobe Illustrator 21.1.0, SVG Export Plug-In . SVG Version: 6.00 Build 0)  -->
<svg version="1.1" id="_x31_" xmlns="http://www.w3.org/2000/svg" xmlns:xlink="http://www.w3.org/1999/xlink" x="0px" y="0px"
     viewBox="0 0 24 24" style="enable-background:new 0 0 24 24;" xml:space="preserve">
<style type="text/css">
    .st0{fill:#FFFFFF;}
</style>
<path id="_x32_" class="st0" d="M9.7,3.1c3.7,0,6.7,3,6.7,6.6c0,1.6-0.6,3.1-1.6,4.3l0.3,0.3h0.8l5.1,5.1l-1.5,1.5l-5.1-5.1V15
    L14,14.7c-1.2,1-2.7,1.6-4.3,1.6C6,16.3,3,13.4,3,9.7C3,6.1,6,3.1,9.7,3.1 M9.7,5.2c-2.6,0-4.6,2-4.6,4.6c0,2.5,2.1,4.6,4.6,4.6
    c2.6,0,4.6-2,4.6-4.6C14.3,7.2,12.2,5.2,9.7,5.2z"/>
</svg>