<?xml version="1.0" encoding="utf-8"?>
<!-- Generator: Adobe Illustrator 21.1.0, SVG Export Plug-In . SVG Version: 6.00 Build 0)  -->
<svg version="1.1" id="_x31_" xmlns="http://www.w3.org/2000/svg" xmlns:xlink="http://www.w3.org/1999/xlink" x="0px" y="0px"
     viewBox="0 0 42 42" style="enable-background:new 0 0 42 42;" xml:space="preserve">
<style type="text/css">
    .st0{fill:#FFFFFF;}
</style>
<path id="_x33_" class="st0" d="M3,33.6c-1.1,1.4-1.9,2.5-2.5,3.7c-0.2,0.2-0.5,1-0.5,1.6v0.7C0,41,1.1,42,2.5,42h37.1
    c1.4,0,2.5-1,2.5-2.5V11C21.7,14.5,9.3,25.6,3,33.6z"/>
<path id="_x32_" class="st0" d="M39.6,0H2.5C1.1,0,0,1,0,2.4v22.2C7.4,17,20.5,8.6,40.4,6.1C41,6.1,42,5.8,42,4.4V2.4
    C42,1,41,0,39.6,0z"/>
</svg>