<?xml version="1.0" encoding="utf-8"?>
<!-- Generator: Adobe Illustrator 21.1.0, SVG Export Plug-In . SVG Version: 6.00 Build 0)  -->
<svg version="1.1" id="_x31_" xmlns="http://www.w3.org/2000/svg" xmlns:xlink="http://www.w3.org/1999/xlink" x="0px" y="0px"
     viewBox="0 0 24 24" style="enable-background:new 0 0 24 24;" xml:space="preserve">
<style type="text/css">
    .st0{fill-rule:evenodd;clip-rule:evenodd;fill:#FFFFFF;}
</style>
<path id="_x32_" class="st0" d="M22.6,13.5l-2.7,1.3c-0.1,0.2-0.2,0.3-0.3,0.5l1,3c0.1,0.2,0.1,0.5-0.1,0.7l-1.5,1.5
    c-0.2,0.2-0.5,0.2-0.7,0.1l-2.9-1c-0.1,0-0.2,0.1-0.3,0.1c-0.1,0.1-0.2,0.1-0.3,0.2l-1.4,2.7c0,0.3-0.3,0.4-0.5,0.4h-2.1
    c-0.3,0-0.5-0.2-0.5-0.4L9,19.8c-0.2-0.1-0.4-0.1-0.5-0.2l-2.8,0.9c-0.2,0.1-0.5,0.1-0.7-0.1L3.4,19c-0.2-0.2-0.2-0.5-0.1-0.7l1-3
    c-0.1-0.2-0.2-0.3-0.3-0.5l-2.7-1.3C1.2,13.5,1,13.3,1,13v-2.1c0-0.3,0.2-0.5,0.4-0.5L4.2,9c0.1-0.2,0.1-0.4,0.2-0.5L3.5,5.6
    C3.3,5.4,3.3,5.1,3.5,4.9L5,3.4c0.2-0.2,0.5-0.2,0.7-0.1l2.9,1c0.1,0,0.1,0,0.2-0.1c0.1,0,0.1-0.1,0.2-0.1l1.4-2.7
    c0-0.3,0.3-0.4,0.5-0.4H13c0.3,0,0.5,0.2,0.5,0.4l1.3,2.7c0.2,0.1,0.3,0.2,0.5,0.3l3-1c0.2-0.1,0.5-0.1,0.7,0.1l1.5,1.5
    c0.2,0.2,0.2,0.5,0.1,0.7l-0.9,2.8c0.1,0.2,0.1,0.4,0.2,0.5l2.8,1.4c0.3,0,0.4,0.3,0.4,0.5V13C23,13.3,22.8,13.5,22.6,13.5z M12,8
    c-2.2,0-4,1.8-4,4c0,2.2,1.8,4,4,4c2.2,0,4-1.8,4-4C16,9.8,14.2,8,12,8z"/>
</svg>