<?xml version="1.0" encoding="utf-8"?>
<!-- Generator: Adobe Illustrator 21.1.0, SVG Export Plug-In . SVG Version: 6.00 Build 0)  -->
<svg version="1.1" id="_x31_" xmlns="http://www.w3.org/2000/svg" xmlns:xlink="http://www.w3.org/1999/xlink" x="0px" y="0px"
     viewBox="0 0 24 24" style="enable-background:new 0 0 24 24;" xml:space="preserve">
<style type="text/css">
    .st0{fill:#FFFFFF;}
</style>
<path id="_x32_" class="st0" d="M21,19v1H3v-1l2-2v-6c0-3.1,2-5.8,5-6.7c0-0.1,0-0.2,0-0.3c0-1.1,0.9-2,2-2c1.1,0,2,0.9,2,2
    c0,0.1,0,0.2,0,0.3c3,0.9,5,3.6,5,6.7v6L21,19 M14,21c0,1.1-0.9,2-2,2c-1.1,0-2-0.9-2-2H14z"/>
</svg>